<?xml version="1.0" encoding="UTF-8"?>
<svg xmlns="http://www.w3.org/2000/svg" xmlns:xlink="http://www.w3.org/1999/xlink" width="810pt" height="449.999984pt" viewBox="0 0 810 449.999984" version="1.2">
<defs>
<clipPath id="clip1">
  <path d="M 153 29.082031 L 509 29.082031 L 509 420.582031 L 153 420.582031 Z M 153 29.082031 "/>
</clipPath>
<clipPath id="clip2">
  <path d="M 453 29.082031 L 809 29.082031 L 809 420.582031 L 453 420.582031 Z M 453 29.082031 "/>
</clipPath>
<clipPath id="clip3">
  <path d="M 305 29.082031 L 661 29.082031 L 661 420.582031 L 305 420.582031 Z M 305 29.082031 "/>
</clipPath>
<clipPath id="clip4">
  <path d="M 1 29.082031 L 357 29.082031 L 357 420.582031 L 1 420.582031 Z M 1 29.082031 "/>
</clipPath>
</defs>
<g id="surface1">
<g clip-path="url(#clip1)" clip-rule="nonzero">
<path style=" stroke:none;fill-rule:nonzero;fill:rgb(99.609375%,96.859741%,84.309387%);fill-opacity:1;" d="M 363.394531 29.0625 L 153.257812 29.0625 L 298.609375 420.570312 L 508.742188 420.570312 L 363.394531 29.0625 "/>
</g>
<g clip-path="url(#clip2)" clip-rule="nonzero">
<path style=" stroke:none;fill-rule:nonzero;fill:rgb(99.609375%,96.859741%,84.309387%);fill-opacity:1;" d="M 663.234375 29.0625 L 453.097656 29.0625 L 598.449219 420.570312 L 808.582031 420.570312 L 663.234375 29.0625 "/>
</g>
<g clip-path="url(#clip3)" clip-rule="nonzero">
<path style=" stroke:none;fill-rule:nonzero;fill:rgb(99.21875%,81.568909%,53.729248%);fill-opacity:1;" d="M 450.796875 29.0625 L 660.9375 29.0625 L 515.582031 420.570312 L 305.445312 420.570312 L 450.796875 29.0625 "/>
</g>
<g clip-path="url(#clip4)" clip-rule="nonzero">
<path style=" stroke:none;fill-rule:nonzero;fill:rgb(99.21875%,81.568909%,53.729248%);fill-opacity:1;" d="M 211.371094 420.570312 L 1.238281 420.570312 L 146.585938 29.0625 L 356.722656 29.0625 L 211.371094 420.570312 "/>
</g>
</g>
</svg>
